<?xml version="1.0" encoding="UTF-8"?><svg xmlns="http://www.w3.org/2000/svg" xmlns:xlink="http://www.w3.org/1999/xlink" viewBox="0 0 2528.2 3575.6"><defs><style>.cls-1{fill:#231f20;}.cls-2{fill:#fff;}.cls-3{fill:#d2d3d4;}.cls-4{fill:url(#radial-gradient);}.cls-5{fill:#e6e7e8;}</style><radialGradient id="radial-gradient" cx="1264.1" cy="1968.08" fx="1264.1" fy="1968.08" r="1156.63" gradientUnits="userSpaceOnUse"><stop offset="0" stop-color="#6e6f71"/><stop offset=".02" stop-color="#6b6c6e"/><stop offset=".3" stop-color="#4c4b4c"/><stop offset=".56" stop-color="#353234"/><stop offset=".8" stop-color="#272425"/><stop offset="1" stop-color="#231f20"/></radialGradient></defs><g id="Desig_cube_3"><polygon class="cls-4" points="193.27 2586.32 193.27 1349.83 1264.1 731.59 2334.93 1349.83 2334.93 2586.32 1264.1 3204.57 193.27 2586.32"/><path class="cls-1" d="M1264.1,766.23l1040.83,600.93v1201.85l-1040.83,600.92L223.27,2569v-1201.85l1040.83-600.93M1264.1,696.95l-30,17.32L193.27,1315.19l-30,17.32v1271.13l30,17.32,1040.83,600.93,30,17.32,30-17.32,1040.83-600.93,30-17.32v-1271.13l-30-17.32-1040.83-600.93-30-17.32h0Z"/></g><g id="Dark"><polyline class="cls-3" points="1264.09 3169.93 223.26 2569.01 223.26 2088.27 431.42 1968.08 639.59 2088.27 639.59 2328.64 1264.09 2689.19 1888.59 2328.64 1888.59 1847.9 1264.09 2208.45 223.26 1607.53 223.26 1367.16 431.42 1246.97 639.59 1367.16 639.59 1126.79 1264.09 766.23 2304.92 1367.16 2304.94 1367.15 2304.94 2569 1264.1 3169.92"/></g><g id="Mid"><polyline class="cls-5" points="1264.09 2929.56 431.42 2448.82 431.42 2208.45 223.26 2088.27 431.42 1968.08 639.59 2088.27 639.59 2328.64 1264.09 2689.19 1888.59 2328.64 2096.73 2448.81 2096.75 2448.8 2096.75 1487.34 1264.52 1006.85 1263.16 1246.44 1888.59 1607.53 1888.59 1847.9 1264.09 2208.45 1264.09 1968.08 223.26 1367.16 431.42 1246.97 1264.09 1727.71 1472.26 1607.53 639.59 1126.79 1264.09 766.23 2304.92 1367.16 2304.94 1367.15 2304.94 2569 1264.1 3169.92 1264.1 2929.58"/></g><g id="Light"><polygon class="cls-2" points="1264.09 2929.56 431.43 2448.82 639.59 2328.63 1264.09 2689.19 1888.59 2328.63 2096.76 2448.82 1264.09 2929.56"/><polygon class="cls-2" points="639.59 2088.26 431.43 1968.08 223.26 2088.26 431.43 2208.45 639.59 2088.26"/><polygon class="cls-2" points="1264.09 766.23 639.59 1126.78 1472.26 1607.52 1264.09 1727.71 431.43 1246.97 223.26 1367.15 1264.09 1968.08 1888.59 1607.52 1055.93 1126.78 1264.09 1006.6 2096.76 1487.34 2304.93 1367.15 1264.09 766.23"/></g></svg>